<svg width="26" height="26" viewBox="0 0 26 26" fill="none" xmlns="http://www.w3.org/2000/svg">
<g id="abstract-svgrepo-com 1">
<path id="Vector" d="M5.41675 20.5833L5.41675 5.41668L20.5834 5.41667L20.5834 8.66667L8.66675 8.66667L8.66675 20.5833L5.41675 20.5833Z" fill="#32475C" fill-opacity="0.87"/>
<path id="Vector_2" fill-rule="evenodd" clip-rule="evenodd" d="M20.5833 15.1667C20.5833 12.1752 18.1582 9.75001 15.1667 9.75001C12.1751 9.75001 9.75 12.1752 9.75 15.1667C9.75 18.1582 12.1751 20.5833 15.1667 20.5833C18.1582 20.5833 20.5833 18.1582 20.5833 15.1667ZM17.3333 15.1667C17.3333 13.97 16.3633 13 15.1667 13C13.97 13 13 13.97 13 15.1667C13 16.3633 13.97 17.3333 15.1667 17.3333C16.3633 17.3333 17.3333 16.3633 17.3333 15.1667Z" fill="#32475C" fill-opacity="0.87"/>
</g>
</svg>
